<svg xmlns="http://www.w3.org/2000/svg" width="512" height="512" viewBox="0 0 512 512"><path fill="#E3AA24"
                                                                                             d="M7.9,256C7.9,119,119,7.9,256,7.9C393,7.9,504.1,119,504.1,256c0,137-111.1,248.1-248.1,248.1C119,504.1,7.9,393,7.9,256z"/><path
        fill="#E17A2D"
        d="M202.8,184.7c19.5-50.7,15.7-127.4,15.7-127.4s51.9,21.7,87.7,81.4c33.7,56.1,1.9,139.7,1.9,139.7c24.8-24.8,34-49.6,34.8-79.4c27.9,44.5,49.4,95.4,49.4,147c0,63.8-58,115.4-129.6,115.5C191,461.4,133,409.7,133,345.9C133,283.8,179.8,244.5,202.8,184.7z"/><path
        fill="#F4E028"
        d="M228.3,293.3c10.7-30.8,8.6-77.2,8.6-77.2s102.7,78.2,95.4,175.1c-2.9,38.6-31.8,70-71.2,70c-39.3,0-71.2-31.4-71.2-70C189.9,353.5,215.6,329.6,228.3,293.3z"
        opacity=".8"/><path fill="#FFF"
                            d="M240.4,353.5c6.8-19.5,5.5-48.9,5.5-48.9s65.1,49.5,60.4,110.9c-1.9,24.4-20.2,44.4-45.1,44.4c-24.9,0-45.1-19.9-45.1-44.4C216.1,391.6,232.4,376.5,240.4,353.5z"
                            opacity=".8"/></svg>